<svg xmlns="http://www.w3.org/2000/svg" xmlns:xlink="http://www.w3.org/1999/xlink" width="24" height="24" viewBox="0 0 24 24">
  <defs>
    <clipPath id="clip-path">
      <rect id="Rectangle_1150" data-name="Rectangle 1150" width="24" height="24" transform="translate(215 755)" stroke="#707070" stroke-width="1"/>
    </clipPath>
  </defs>
  <g id="Mask_Group_15" data-name="Mask Group 15" transform="translate(-215 -755)" opacity="0.5" clip-path="url(#clip-path)">
    <g id="chat" transform="translate(215 755)">
      <g id="Group_6281" data-name="Group 6281">
        <path id="Path_2307" data-name="Path 2307" d="M12.055,0h-.039A11.774,11.774,0,0,0,2.782,19.111L1.065,23.1a.64.64,0,0,0,.334.842.654.654,0,0,0,.367.045l6.3-1.106a11.345,11.345,0,0,0,3.922.682A11.784,11.784,0,0,0,12.055,0ZM8.016,9.427h3.472a.643.643,0,1,1,0,1.286H8.016a.643.643,0,1,1,0-1.286Zm7.974,4.5H8.016a.643.643,0,1,1,0-1.286H15.99a.643.643,0,1,1,0,1.286Z"/>
      </g>
    </g>
  </g>
</svg>
