<svg xmlns="http://www.w3.org/2000/svg" xmlns:xlink="http://www.w3.org/1999/xlink" width="24" height="24" viewBox="0 0 24 24">
  <defs>
    <clipPath id="clip-path">
      <rect id="Rectangle_1151" data-name="Rectangle 1151" width="24" height="24" transform="translate(312 757)" stroke="#707070" stroke-width="1"/>
    </clipPath>
  </defs>
  <g id="Mask_Group_16" data-name="Mask Group 16" transform="translate(-312 -757)" opacity="0.5" clip-path="url(#clip-path)">
    <g id="bell" transform="translate(312 757)">
      <path id="Path_2311" data-name="Path 2311" d="M21.379,16.913A6.7,6.7,0,0,1,19,11.788V9a7.006,7.006,0,0,0-6-6.92V1a1,1,0,0,0-2,0V2.08A7,7,0,0,0,5,9v2.788a6.705,6.705,0,0,1-2.388,5.133A1.75,1.75,0,0,0,3.75,20h16.5a1.75,1.75,0,0,0,1.129-3.087Z"/>
      <path id="Path_2312" data-name="Path 2312" d="M12,24a3.756,3.756,0,0,0,3.674-3H8.326A3.756,3.756,0,0,0,12,24Z"/>
    </g>
  </g>
</svg>
